<svg xmlns="http://www.w3.org/2000/svg" xmlns:xlink="http://www.w3.org/1999/xlink" width="861pt" height="274pt" viewBox="0.00 0.00 861.00 274.00">
<g id="graph0" class="graph" transform="scale(1 1) rotate(0) translate(4 270)">
<title>G</title>
<polygon fill="white" stroke="none" points="-4,4 -4,-270 857,-270 857,4 -4,4"/>
<!-- 4412013152 -->
<g id="node1" class="node">
<title>4412013152</title>
<g id="a_node1"><a xlink:title="n 
 data 0.8814 
 grad 0.5000">
<path fill="none" stroke="black" d="M641,-123C641,-123 577,-123 577,-123 571,-123 565,-117 565,-111 565,-111 565,-82 565,-82 565,-76 571,-70 577,-70 577,-70 641,-70 641,-70 647,-70 653,-76 653,-82 653,-82 653,-111 653,-111 653,-117 647,-123 641,-123"/>
<text text-anchor="middle" x="609" y="-107.8" font-family="Times,serif" font-size="14.00">n </text>
<text text-anchor="middle" x="609" y="-92.8" font-family="Times,serif" font-size="14.00"> data 0.8814 </text>
<text text-anchor="middle" x="609" y="-77.8" font-family="Times,serif" font-size="14.00"> grad 0.5000</text>
</a>
</g>
</g>
<!-- tanh4412013344 -->
<g id="node8" class="node">
<title>tanh4412013344</title>
<g id="a_node8"><a xlink:title="tanh">
<path fill="none" stroke="black" d="M721.33,-108C721.33,-108 696.67,-108 696.67,-108 692.83,-108 689,-104.17 689,-100.33 689,-100.33 689,-92.67 689,-92.67 689,-88.83 692.83,-85 696.67,-85 696.67,-85 721.33,-85 721.33,-85 725.17,-85 729,-88.83 729,-92.67 729,-92.67 729,-100.33 729,-100.33 729,-104.17 725.17,-108 721.33,-108"/>
<text text-anchor="middle" x="709" y="-92.8" font-family="Times,serif" font-size="14.00">tanh</text>
</a>
</g>
</g>
<!-- 4412013152&#45;&gt;tanh4412013344 -->
<g id="edge10" class="edge">
<title>4412013152-&gt;tanh4412013344</title>
<path fill="none" stroke="black" d="M653.27,-96.5C661.48,-96.5 669.91,-96.5 677.61,-96.5"/>
<polygon fill="black" stroke="black" points="677.48,-100 687.48,-96.5 677.48,-93 677.48,-100"/>
</g>
<!-- PL4412013152 -->
<g id="node2" class="node">
<title>PL4412013152</title>
<g id="a_node2"><a xlink:title="+">
<path fill="none" stroke="black" d="M521.33,-108C521.33,-108 511.67,-108 511.67,-108 507.83,-108 504,-104.17 504,-100.33 504,-100.33 504,-92.67 504,-92.67 504,-88.83 507.83,-85 511.67,-85 511.67,-85 521.33,-85 521.33,-85 525.17,-85 529,-88.83 529,-92.67 529,-92.67 529,-100.33 529,-100.33 529,-104.17 525.17,-108 521.33,-108"/>
<text text-anchor="middle" x="516.5" y="-92.8" font-family="Times,serif" font-size="14.00">+</text>
</a>
</g>
</g>
<!-- PL4412013152&#45;&gt;4412013152 -->
<g id="edge1" class="edge">
<title>PL4412013152-&gt;4412013152</title>
<path fill="none" stroke="black" d="M529.33,-96.5C535.73,-96.5 544.15,-96.5 553.09,-96.5"/>
<polygon fill="black" stroke="black" points="553.08,-100 563.08,-96.5 553.08,-93 553.08,-100"/>
</g>
<!-- 4412006048 -->
<g id="node3" class="node">
<title>4412006048</title>
<g id="a_node3"><a xlink:title="x2w2 
 data 0.0000 
 grad 0.5000">
<path fill="none" stroke="black" d="M265,-195C265,-195 201,-195 201,-195 195,-195 189,-189 189,-183 189,-183 189,-154 189,-154 189,-148 195,-142 201,-142 201,-142 265,-142 265,-142 271,-142 277,-148 277,-154 277,-154 277,-183 277,-183 277,-189 271,-195 265,-195"/>
<text text-anchor="middle" x="233" y="-179.8" font-family="Times,serif" font-size="14.00">x2w2 </text>
<text text-anchor="middle" x="233" y="-164.8" font-family="Times,serif" font-size="14.00"> data 0.0000 </text>
<text text-anchor="middle" x="233" y="-149.8" font-family="Times,serif" font-size="14.00"> grad 0.5000</text>
</a>
</g>
</g>
<!-- PL4412007632 -->
<g id="node6" class="node">
<title>PL4412007632</title>
<g id="a_node6"><a xlink:title="+">
<path fill="none" stroke="black" d="M332.33,-144C332.33,-144 322.67,-144 322.67,-144 318.83,-144 315,-140.17 315,-136.33 315,-136.33 315,-128.67 315,-128.67 315,-124.83 318.83,-121 322.67,-121 322.67,-121 332.33,-121 332.33,-121 336.17,-121 340,-124.83 340,-128.67 340,-128.67 340,-136.33 340,-136.33 340,-140.17 336.17,-144 332.33,-144"/>
<text text-anchor="middle" x="327.5" y="-128.8" font-family="Times,serif" font-size="14.00">+</text>
</a>
</g>
</g>
<!-- 4412006048&#45;&gt;PL4412007632 -->
<g id="edge11" class="edge">
<title>4412006048-&gt;PL4412007632</title>
<path fill="none" stroke="black" d="M277.27,-151.66C286.5,-148.07 295.88,-144.42 303.95,-141.28"/>
<polygon fill="black" stroke="black" points="305.19,-144.55 313.24,-137.66 302.65,-138.03 305.19,-144.55"/>
</g>
<!-- MU4412006048 -->
<g id="node4" class="node">
<title>MU4412006048</title>
<g id="a_node4"><a xlink:title="*">
<path fill="none" stroke="black" d="M143.33,-180C143.33,-180 135.67,-180 135.67,-180 131.83,-180 128,-176.17 128,-172.33 128,-172.33 128,-164.67 128,-164.67 128,-160.83 131.83,-157 135.67,-157 135.67,-157 143.33,-157 143.33,-157 147.17,-157 151,-160.83 151,-164.67 151,-164.67 151,-172.33 151,-172.33 151,-176.17 147.17,-180 143.33,-180"/>
<text text-anchor="middle" x="139.5" y="-164.8" font-family="Times,serif" font-size="14.00">*</text>
</a>
</g>
</g>
<!-- MU4412006048&#45;&gt;4412006048 -->
<g id="edge2" class="edge">
<title>MU4412006048-&gt;4412006048</title>
<path fill="none" stroke="black" d="M151.36,-168.5C158.17,-168.5 167.52,-168.5 177.44,-168.5"/>
<polygon fill="black" stroke="black" points="177.27,-172 187.27,-168.5 177.27,-165 177.27,-172"/>
</g>
<!-- 4412007632 -->
<g id="node5" class="node">
<title>4412007632</title>
<g id="a_node5"><a xlink:title="x1w1+x2w2 
 data -6.0000 
 grad 0.5000">
<path fill="none" stroke="black" d="M456,-159C456,-159 388,-159 388,-159 382,-159 376,-153 376,-147 376,-147 376,-118 376,-118 376,-112 382,-106 388,-106 388,-106 456,-106 456,-106 462,-106 468,-112 468,-118 468,-118 468,-147 468,-147 468,-153 462,-159 456,-159"/>
<text text-anchor="middle" x="422" y="-143.8" font-family="Times,serif" font-size="14.00">x1w1+x2w2 </text>
<text text-anchor="middle" x="422" y="-128.8" font-family="Times,serif" font-size="14.00"> data -6.0000 </text>
<text text-anchor="middle" x="422" y="-113.8" font-family="Times,serif" font-size="14.00"> grad 0.5000</text>
</a>
</g>
</g>
<!-- 4412007632&#45;&gt;PL4412013152 -->
<g id="edge6" class="edge">
<title>4412007632-&gt;PL4412013152</title>
<path fill="none" stroke="black" d="M468.44,-114.82C476.95,-111.5 485.5,-108.17 492.94,-105.28"/>
<polygon fill="black" stroke="black" points="494.07,-108.59 502.12,-101.71 491.53,-102.07 494.07,-108.59"/>
</g>
<!-- PL4412007632&#45;&gt;4412007632 -->
<g id="edge3" class="edge">
<title>PL4412007632-&gt;4412007632</title>
<path fill="none" stroke="black" d="M340.22,-132.5C346.71,-132.5 355.32,-132.5 364.5,-132.5"/>
<polygon fill="black" stroke="black" points="364.36,-136 374.36,-132.5 364.36,-129 364.36,-136"/>
</g>
<!-- 4412013344 -->
<g id="node7" class="node">
<title>4412013344</title>
<g id="a_node7"><a xlink:title="o 
 data 0.7071 
 grad 1.0000">
<path fill="none" stroke="black" d="M841,-123C841,-123 777,-123 777,-123 771,-123 765,-117 765,-111 765,-111 765,-82 765,-82 765,-76 771,-70 777,-70 777,-70 841,-70 841,-70 847,-70 853,-76 853,-82 853,-82 853,-111 853,-111 853,-117 847,-123 841,-123"/>
<text text-anchor="middle" x="809" y="-107.8" font-family="Times,serif" font-size="14.00">o </text>
<text text-anchor="middle" x="809" y="-92.8" font-family="Times,serif" font-size="14.00"> data 0.7071 </text>
<text text-anchor="middle" x="809" y="-77.8" font-family="Times,serif" font-size="14.00"> grad 1.0000</text>
</a>
</g>
</g>
<!-- tanh4412013344&#45;&gt;4412013344 -->
<g id="edge4" class="edge">
<title>tanh4412013344-&gt;4412013344</title>
<path fill="none" stroke="black" d="M729.36,-96.5C736.42,-96.5 744.79,-96.5 753.4,-96.5"/>
<polygon fill="black" stroke="black" points="753.25,-100 763.25,-96.5 753.25,-93 753.25,-100"/>
</g>
<!-- 4412011328 -->
<g id="node9" class="node">
<title>4412011328</title>
<g id="a_node9"><a xlink:title="w1 
 data -3.0000 
 grad 1.0000">
<path fill="none" stroke="black" d="M80,-124C80,-124 12,-124 12,-124 6,-124 0,-118 0,-112 0,-112 0,-83 0,-83 0,-77 6,-71 12,-71 12,-71 80,-71 80,-71 86,-71 92,-77 92,-83 92,-83 92,-112 92,-112 92,-118 86,-124 80,-124"/>
<text text-anchor="middle" x="46" y="-108.8" font-family="Times,serif" font-size="14.00">w1 </text>
<text text-anchor="middle" x="46" y="-93.8" font-family="Times,serif" font-size="14.00"> data -3.0000 </text>
<text text-anchor="middle" x="46" y="-78.8" font-family="Times,serif" font-size="14.00"> grad 1.0000</text>
</a>
</g>
</g>
<!-- MU4412005856 -->
<g id="node15" class="node">
<title>MU4412005856</title>
<g id="a_node15"><a xlink:title="*">
<path fill="none" stroke="black" d="M143.33,-109C143.33,-109 135.67,-109 135.67,-109 131.83,-109 128,-105.17 128,-101.33 128,-101.33 128,-93.67 128,-93.67 128,-89.83 131.83,-86 135.67,-86 135.67,-86 143.33,-86 143.33,-86 147.17,-86 151,-89.83 151,-93.67 151,-93.67 151,-101.33 151,-101.33 151,-105.17 147.17,-109 143.33,-109"/>
<text text-anchor="middle" x="139.5" y="-93.8" font-family="Times,serif" font-size="14.00">*</text>
</a>
</g>
</g>
<!-- 4412011328&#45;&gt;MU4412005856 -->
<g id="edge12" class="edge">
<title>4412011328-&gt;MU4412005856</title>
<path fill="none" stroke="black" d="M92.48,-97.5C100.77,-97.5 109.07,-97.5 116.29,-97.5"/>
<polygon fill="black" stroke="black" points="116.05,-101 126.05,-97.5 116.05,-94 116.05,-101"/>
</g>
<!-- 4412011376 -->
<g id="node10" class="node">
<title>4412011376</title>
<g id="a_node10"><a xlink:title="w2 
 data 1.0000 
 grad 0.0000">
<path fill="none" stroke="black" d="M78,-266C78,-266 14,-266 14,-266 8,-266 2,-260 2,-254 2,-254 2,-225 2,-225 2,-219 8,-213 14,-213 14,-213 78,-213 78,-213 84,-213 90,-219 90,-225 90,-225 90,-254 90,-254 90,-260 84,-266 78,-266"/>
<text text-anchor="middle" x="46" y="-250.8" font-family="Times,serif" font-size="14.00">w2 </text>
<text text-anchor="middle" x="46" y="-235.8" font-family="Times,serif" font-size="14.00"> data 1.0000 </text>
<text text-anchor="middle" x="46" y="-220.8" font-family="Times,serif" font-size="14.00"> grad 0.0000</text>
</a>
</g>
</g>
<!-- 4412011376&#45;&gt;MU4412006048 -->
<g id="edge7" class="edge">
<title>4412011376-&gt;MU4412006048</title>
<path fill="none" stroke="black" d="M81.59,-212.66C94.15,-202.92 107.89,-192.25 118.73,-183.84"/>
<polygon fill="black" stroke="black" points="120.8,-186.67 126.55,-177.77 116.51,-181.14 120.8,-186.67"/>
</g>
<!-- 4412008832 -->
<g id="node11" class="node">
<title>4412008832</title>
<g id="a_node11"><a xlink:title="b 
 data 6.8814 
 grad 0.5000">
<path fill="none" stroke="black" d="M454,-88C454,-88 390,-88 390,-88 384,-88 378,-82 378,-76 378,-76 378,-47 378,-47 378,-41 384,-35 390,-35 390,-35 454,-35 454,-35 460,-35 466,-41 466,-47 466,-47 466,-76 466,-76 466,-82 460,-88 454,-88"/>
<text text-anchor="middle" x="422" y="-72.8" font-family="Times,serif" font-size="14.00">b </text>
<text text-anchor="middle" x="422" y="-57.8" font-family="Times,serif" font-size="14.00"> data 6.8814 </text>
<text text-anchor="middle" x="422" y="-42.8" font-family="Times,serif" font-size="14.00"> grad 0.5000</text>
</a>
</g>
</g>
<!-- 4412008832&#45;&gt;PL4412013152 -->
<g id="edge14" class="edge">
<title>4412008832-&gt;PL4412013152</title>
<path fill="none" stroke="black" d="M466.27,-77.87C475.5,-81.36 484.88,-84.91 492.95,-87.97"/>
<polygon fill="black" stroke="black" points="491.64,-91.21 502.23,-91.48 494.12,-84.67 491.64,-91.21"/>
</g>
<!-- 4412011952 -->
<g id="node12" class="node">
<title>4412011952</title>
<g id="a_node12"><a xlink:title="x1 
 data 2.0000 
 grad -1.5000">
<path fill="none" stroke="black" d="M79,-53C79,-53 13,-53 13,-53 7,-53 1,-47 1,-41 1,-41 1,-12 1,-12 1,-6 7,0 13,0 13,0 79,0 79,0 85,0 91,-6 91,-12 91,-12 91,-41 91,-41 91,-47 85,-53 79,-53"/>
<text text-anchor="middle" x="46" y="-37.8" font-family="Times,serif" font-size="14.00">x1 </text>
<text text-anchor="middle" x="46" y="-22.8" font-family="Times,serif" font-size="14.00"> data 2.0000 </text>
<text text-anchor="middle" x="46" y="-7.8" font-family="Times,serif" font-size="14.00"> grad -1.5000</text>
</a>
</g>
</g>
<!-- 4412011952&#45;&gt;MU4412005856 -->
<g id="edge8" class="edge">
<title>4412011952-&gt;MU4412005856</title>
<path fill="none" stroke="black" d="M81.59,-53.34C94.15,-63.08 107.89,-73.75 118.73,-82.16"/>
<polygon fill="black" stroke="black" points="116.51,-84.86 126.55,-88.23 120.8,-79.33 116.51,-84.86"/>
</g>
<!-- 4412008400 -->
<g id="node13" class="node">
<title>4412008400</title>
<g id="a_node13"><a xlink:title="x2 
 data 0.0000 
 grad 0.5000">
<path fill="none" stroke="black" d="M78,-195C78,-195 14,-195 14,-195 8,-195 2,-189 2,-183 2,-183 2,-154 2,-154 2,-148 8,-142 14,-142 14,-142 78,-142 78,-142 84,-142 90,-148 90,-154 90,-154 90,-183 90,-183 90,-189 84,-195 78,-195"/>
<text text-anchor="middle" x="46" y="-179.8" font-family="Times,serif" font-size="14.00">x2 </text>
<text text-anchor="middle" x="46" y="-164.8" font-family="Times,serif" font-size="14.00"> data 0.0000 </text>
<text text-anchor="middle" x="46" y="-149.8" font-family="Times,serif" font-size="14.00"> grad 0.5000</text>
</a>
</g>
</g>
<!-- 4412008400&#45;&gt;MU4412006048 -->
<g id="edge9" class="edge">
<title>4412008400-&gt;MU4412006048</title>
<path fill="none" stroke="black" d="M90.34,-168.5C99.32,-168.5 108.43,-168.5 116.28,-168.5"/>
<polygon fill="black" stroke="black" points="116.18,-172 126.18,-168.5 116.18,-165 116.18,-172"/>
</g>
<!-- 4412005856 -->
<g id="node14" class="node">
<title>4412005856</title>
<g id="a_node14"><a xlink:title="x1w1 
 data -6.0000 
 grad 0.5000">
<path fill="none" stroke="black" d="M267,-124C267,-124 199,-124 199,-124 193,-124 187,-118 187,-112 187,-112 187,-83 187,-83 187,-77 193,-71 199,-71 199,-71 267,-71 267,-71 273,-71 279,-77 279,-83 279,-83 279,-112 279,-112 279,-118 273,-124 267,-124"/>
<text text-anchor="middle" x="233" y="-108.8" font-family="Times,serif" font-size="14.00">x1w1 </text>
<text text-anchor="middle" x="233" y="-93.8" font-family="Times,serif" font-size="14.00"> data -6.0000 </text>
<text text-anchor="middle" x="233" y="-78.8" font-family="Times,serif" font-size="14.00"> grad 0.5000</text>
</a>
</g>
</g>
<!-- 4412005856&#45;&gt;PL4412007632 -->
<g id="edge13" class="edge">
<title>4412005856-&gt;PL4412007632</title>
<path fill="none" stroke="black" d="M279.44,-114.69C287.95,-117.91 296.5,-121.15 303.94,-123.96"/>
<polygon fill="black" stroke="black" points="302.53,-127.17 313.12,-127.44 305,-120.62 302.53,-127.17"/>
</g>
<!-- MU4412005856&#45;&gt;4412005856 -->
<g id="edge5" class="edge">
<title>MU4412005856-&gt;4412005856</title>
<path fill="none" stroke="black" d="M151.36,-97.5C157.68,-97.5 166.2,-97.5 175.34,-97.5"/>
<polygon fill="black" stroke="black" points="175.17,-101 185.17,-97.5 175.17,-94 175.17,-101"/>
</g>
</g>
</svg>